# xmcd CD database file
#
# Track frame offsets:
#	150
#	13652
#	26347
#	37312
#	51335
#	65122
#	78835
#	90327
#	104470
#	118745
#	131267
#	144675
#	158782
#	171762
#	186502
#	199087
#	212572
#	225920
#
# Disc length: 3169 seconds
#
# Revision: 0
# Processed by: cddbd v1.4PL0 Copyright (c) Steve Scherf et al.
# Submitted via: CDex 1.50Beta3
#
DISCID=f60c5f12
DTITLE=Ella Fitzgerald - The Great Ela Fitzgerald - Disc 3
DYEAR=1900
DGENRE=Jazz
TTITLE0=I Got it Bad
TTITLE1=Can't Help Lovin' Dat Man
TTITLE2=The Muffin Man
TTITLE3=Takin' a Chance on Love
TTITLE4=T'aint What You Do
TTITLE5=Wacky Dust
TTITLE6=Three Little Words
TTITLE7=Loiusville K-y
TTITLE8=Five O'Clock Whistle
TTITLE9=Shake Down the Stars
TTITLE10=Imagination
TTITLE11=The Starlight Hour
TTITLE12=Love is the Thing, So they say
TTITLE13=The Dipsy Doodle
TTITLE14=Big Boy Blue
TTITLE15=It's my Turn Now
TTITLE16=I was doing Alright
TTITLE17=Cryin' Mood
EXTD=
EXTT0=
EXTT1=
EXTT2=
EXTT3=
EXTT4=
EXTT5=
EXTT6=
EXTT7=
EXTT8=
EXTT9=
EXTT10=
EXTT11=
EXTT12=
EXTT13=
EXTT14=
EXTT15=
EXTT16=
EXTT17=
PLAYORDER=
